# xmcd
#
# Track frame offsets:
#	150
#	29343
#	57600
#	92395
#	180217
#
# Disc length: 2778 seconds
#
# Revision: 1
# Processed by: cddbd v1.5.2PL0 Copyright (c) Steve Scherf et al.
# Submitted via: EasyCDDAExtractor 5.1.0
#
DISCID=330ad805
DTITLE=Heaven And Hell - Time Warner Cable Amphitheater At Tower City Clevelan
DTITLE=d Ohio 11-05-07 Source 1 Disc 2
DYEAR=2007
DGENRE=Hard Rock
TTITLE0=Falling Off The Edge Of The World
TTITLE1=Shadows Of The Wind
TTITLE2=Die Young
TTITLE3=Heaven And Hell
TTITLE4=Neon Knights
EXTD=
EXTT0=
EXTT1=
EXTT2=
EXTT3=
EXTT4=
PLAYORDER=
